# xmcd
#
# Track frame offsets:
#	150
#	14368
#	34820
#	53833
#	70537
#	88270
#	109481
#	127779
#	141218
#	157214
#	180662
#	198567
#	218588
#
# Disc length: 3087 seconds
#
# Revision: 1
# Processed by: cddbd v1.5.2PL0 Copyright (c) Steve Scherf et al.
# Submitted via: audiograbber 1.83.01
#
DISCID=b90c0d0d
DTITLE=PASION VEGA - PASION POR CANO
DYEAR=2015
DGENRE=Copla
TTITLE0=DANZON DEL CORAZON
TTITLE1=ALACENA DE LAS MONJAS
TTITLE2=LA REINA DEL BLUES CON ESTRELLA MORENTE
TTITLE3=EL ULTIMO BOLERO
TTITLE4=SONATA DE LA LUNA EN MARRAKESH CON NOA
TTITLE5=MARIA LA PORTUGUESA
TTITLE6=DORMIDO ENTRE ROSAS CON MIGUEL POVEDA
TTITLE7=ROMANCE A OCAÑA
TTITLE8=LUNA DE ABRIL CON INDIA MARTINEZ
TTITLE9=HABANERAS DE CADIZ
TTITLE10=ESPERANDO A LAS GOLONDRINAS CON JOAN MANUEL SERRAT
TTITLE11=SOY DEL SUR
TTITLE12=AIRES DE CUNA CON Mª DOLORES PRADERA
EXTD=
EXTT0=
EXTT1=
EXTT2=
EXTT3=
EXTT4=
EXTT5=
EXTT6=
EXTT7=
EXTT8=
EXTT9=
EXTT10=
EXTT11=
EXTT12=
PLAYORDER=
